<svg width="389" height="100" viewBox="0 0 389 100" fill="none" xmlns="http://www.w3.org/2000/svg">
<g clip-path="url(#clip0)">
<rect width="100" height="100" rx="25" fill="#D11F00"/>
<path d="M48.0786 70.84C53.4686 70.84 58.3686 68.53 61.3786 64.68V70H70.8286V29.05H61.3786V33.95C58.3686 30.38 53.6086 28.21 48.2186 28.21C37.8586 28.21 27.9186 35.98 27.9186 49.56C27.9186 63 38.2086 70.84 48.0786 70.84ZM49.6186 62.16C42.6186 62.16 37.2286 56.56 37.2286 49.42C37.2286 42.35 42.6186 36.82 49.6186 36.82C56.6886 36.82 61.8686 42.42 61.8686 49.42C61.8686 56.49 56.6886 62.16 49.6186 62.16Z" fill="white"/>
<path d="M126.268 70L130.574 57.4023H146.072L150.408 70H154.686L140.359 30.0391H136.316L121.961 70H126.268ZM138.396 35.1074L144.9 54.0332H131.746L138.279 35.1074H138.396ZM173.611 70.498C180.584 70.498 185.77 65.2832 185.77 56.4355V52.9492C185.77 44.1309 180.643 38.8574 173.787 38.8574C169.1 38.8574 166.053 41.4648 164.471 44.1016H164.354V39.3848H160.516V80.0781H164.559V65.5469H164.676C166.229 68.1836 169.188 70.498 173.611 70.498ZM173.436 66.8945C167.869 66.8945 164.471 62.4707 164.471 56.0254V53.125C164.471 46.9727 167.781 42.4316 173.318 42.4316C178.504 42.4316 181.727 46.3867 181.727 53.1543V55.9961C181.727 63.1445 178.24 66.8945 173.436 66.8945ZM207.068 70.498C214.041 70.498 219.227 65.2832 219.227 56.4355V52.9492C219.227 44.1309 214.1 38.8574 207.244 38.8574C202.557 38.8574 199.51 41.4648 197.928 44.1016H197.811V39.3848H193.973V80.0781H198.016V65.5469H198.133C199.686 68.1836 202.645 70.498 207.068 70.498ZM206.893 66.8945C201.326 66.8945 197.928 62.4707 197.928 56.0254V53.125C197.928 46.9727 201.238 42.4316 206.775 42.4316C211.961 42.4316 215.184 46.3867 215.184 53.1543V55.9961C215.184 63.1445 211.697 66.8945 206.893 66.8945ZM227.576 70H231.619V27.9004H227.576V70ZM252.537 70.498C259.217 70.498 263.143 66.6895 264.197 61.9434H260.096C259.188 64.8438 256.756 67.0117 252.654 67.0117C247.234 67.0117 244.041 62.793 244.041 56.377V55.6445H264.637V53.0957C264.637 44.4824 260.066 38.8574 252.303 38.8574C244.451 38.8574 239.969 44.5117 239.969 52.7734V56.2598C239.969 64.9316 244.686 70.498 252.537 70.498ZM244.041 52.1289V52.041C244.041 46.4746 247.264 42.373 252.303 42.373C257.283 42.373 260.564 46.4746 260.564 52.041V52.1289H244.041ZM308.23 66.2793H289.246V30.0391H285.145V70H308.23V66.2793ZM330.818 65.8984H330.936V70H334.861V48.6133C334.861 42.373 330.32 38.8574 323.934 38.8574C316.902 38.8574 313.299 42.5488 312.918 47.793H316.756C317.166 44.5117 319.48 42.373 323.787 42.373C328.211 42.373 330.818 44.6875 330.818 49.1113V52.5684H322.352C315.379 52.5977 311.717 55.9961 311.717 61.2695C311.717 66.8652 315.789 70.498 321.707 70.498C326.57 70.498 329.441 68.2715 330.818 65.8984ZM322.645 67.0117C319.041 67.0117 315.906 65.0488 315.906 61.1523C315.906 58.0762 317.869 55.8789 322.498 55.8789H330.818V59.7754C330.818 64.0527 327.273 67.0117 322.645 67.0117ZM357.449 70.498C364.598 70.498 369.607 65.2539 369.607 56.4648V52.8613C369.607 43.9551 364.598 38.8574 357.508 38.8574C353.025 38.8574 349.627 41.4941 348.25 43.9551H348.133V27.9004H344.09V70H347.928V65.0781H348.045C349.715 68.0957 352.645 70.498 357.449 70.498ZM357.186 66.8945C351.502 66.8945 348.045 62.9102 348.045 56.1133V53.1543C348.045 46.5332 351.443 42.4902 357.186 42.4902C362.049 42.4902 365.564 46.2695 365.564 53.1836V56.1719C365.564 63.1445 361.99 66.8945 357.186 66.8945Z" fill="black"/>
</g>
<defs>
<clipPath id="clip0">
<rect width="389" height="100" fill="white"/>
</clipPath>
</defs>
</svg>
